# xmcd
#
# Track frame offsets:
#	150
#	1860
#	5739
#	7127
#	19952
#	29591
#	42340
#	55485
#	64305
#	74147
#	87506
#	99037
#	110814
#	119510
#	132353
#	144896
#	153146
#	157286
#	168659
#	181256
#	192142
#	203475
#	215673
#	226943
#	239902
#	245290
#	262986
#	283305
#	296276
#	305579
#
# Disc length: 4165 seconds
#
# Revision: 0
# Processed by: cddbd v1.4PL0 Copyright (c) Steve Scherf et al.
# Submitted via: EasyCDDAExtractor 4.6.9.1
#
DISCID=c210431e
DTITLE=The Kentucky Colonels - Livin' In The Past 
DYEAR=1900
DGENRE=Bluegrass
TTITLE0=Introduction: Jerry Garcia
TTITLE1=Fire On The Mountain
TTITLE2=Introduction
TTITLE3=If You're Ever Gonna Love Me
TTITLE4=Band Introduction
TTITLE5=Julius Finkbine's Rag
TTITLE6=Dark Hollow
TTITLE7=Memphis Special
TTITLE8=He Said If I Be Lifted Up
TTITLE9=Get Down On Your Knees and Pray
TTITLE10=Lee Highway Blues
TTITLE11=A Woman Named Ruth
TTITLE12=Shuckin' The Corn
TTITLE13=Ocean Of Diamonds
TTITLE14=Angel Of Death
TTITLE15=Barefoot Nellie
TTITLE16=Train 45 (Intro: Mayne Smith)
TTITLE17=Hard Hearted
TTITLE18=Chug-A-Lug
TTITLE19=Alabama Jubilee
TTITLE20=Sunny Side Of The Mountain
TTITLE21=Journey's End (A Life Of Sorrow)
TTITLE22=Sheik Of Araby
TTITLE23=Good Woman's Love
TTITLE24=Mother's Milk Routine
TTITLE25=Listen To The Mocking Bird
TTITLE26=Old Joe Clark
TTITLE27=I Am A Pilgrim
TTITLE28=Jordan
TTITLE29=Shady Grove
EXTD=
EXTT0=
EXTT1=
EXTT2=
EXTT3=
EXTT4=
EXTT5=
EXTT6=
EXTT7=
EXTT8=
EXTT9=
EXTT10=
EXTT11=
EXTT12=
EXTT13=
EXTT14=
EXTT15=
EXTT16=
EXTT17=
EXTT18=
EXTT19=
EXTT20=
EXTT21=
EXTT22=
EXTT23=
EXTT24=
EXTT25=
EXTT26=
EXTT27=
EXTT28=
EXTT29=
PLAYORDER=
